<mxfile host="app.diagrams.net" agent="Mozilla/5.0 (Windows NT 10.0; Win64; x64) AppleWebKit/537.36 (KHTML, like Gecko) Chrome/140.0.0.0 Safari/537.36" version="28.2.5">
  <diagram name="Diagrama Principal" id="r_YS-IifWdTMrcEwAk-8">
    <mxGraphModel dx="1042" dy="527" grid="1" gridSize="10" guides="1" tooltips="1" connect="1" arrows="1" fold="1" page="1" pageScale="1" pageWidth="827" pageHeight="1169" math="0" shadow="0">
      <root>
        <mxCell id="0" />
        <mxCell id="1" parent="0" />
        <mxCell id="WBMFuJtXSNuy-y8oTi-l-1" value="Frontend" style="rounded=1;whiteSpace=wrap;html=1;align=center;verticalAlign=middle;fillColor=#ADD8E6;strokeColor=#000000;fontSize=14;" vertex="1" parent="1">
          <mxGeometry x="140" y="20" width="320" height="160" as="geometry" />
        </mxCell>
        <mxCell id="WBMFuJtXSNuy-y8oTi-l-2" value="React (web)" style="rounded=1;whiteSpace=wrap;html=1;align=center;verticalAlign=middle;fillColor=#FFFFFF;strokeColor=#000000;fontSize=12;" vertex="1" parent="WBMFuJtXSNuy-y8oTi-l-1">
          <mxGeometry x="20" y="18" width="280" height="50" as="geometry" />
        </mxCell>
        <mxCell id="WBMFuJtXSNuy-y8oTi-l-3" value="React Native (mobile)" style="rounded=1;whiteSpace=wrap;html=1;align=center;verticalAlign=middle;fillColor=#FFFFFF;strokeColor=#000000;fontSize=12;" vertex="1" parent="WBMFuJtXSNuy-y8oTi-l-1">
          <mxGeometry x="20" y="92" width="280" height="50" as="geometry" />
        </mxCell>
        <mxCell id="WBMFuJtXSNuy-y8oTi-l-4" value="Node.js com Express" style="rounded=1;whiteSpace=wrap;html=1;align=center;verticalAlign=middle;fillColor=#90EE90;strokeColor=#000000;fontSize=14;" vertex="1" parent="1">
          <mxGeometry x="160" y="220" width="280" height="120" as="geometry" />
        </mxCell>
        <mxCell id="WBMFuJtXSNuy-y8oTi-l-5" value="PostgreSQL com PostGIS" style="rounded=1;whiteSpace=wrap;html=1;align=center;verticalAlign=middle;fillColor=#D3D3D3;strokeColor=#000000;fontSize=14;" vertex="1" parent="1">
          <mxGeometry x="160" y="380" width="280" height="100" as="geometry" />
        </mxCell>
        <mxCell id="WBMFuJtXSNuy-y8oTi-l-6" value="APIs RESTful" style="edgeStyle=orthogonalEdgeStyle;rounded=0;orthogonalLoop=1;jettySize=auto;html=1;endArrow=block;" edge="1" parent="1" source="WBMFuJtXSNuy-y8oTi-l-1" target="WBMFuJtXSNuy-y8oTi-l-4">
          <mxGeometry relative="1" as="geometry">
            <mxPoint x="300" y="180" as="targetPoint" />
          </mxGeometry>
        </mxCell>
        <mxCell id="WBMFuJtXSNuy-y8oTi-l-7" value="Consultas SQL / Geoespaciais" style="edgeStyle=orthogonalEdgeStyle;rounded=0;orthogonalLoop=1;jettySize=auto;html=1;endArrow=block;" edge="1" parent="1" source="WBMFuJtXSNuy-y8oTi-l-4" target="WBMFuJtXSNuy-y8oTi-l-5">
          <mxGeometry relative="1" as="geometry">
            <mxPoint x="300" y="340" as="targetPoint" />
          </mxGeometry>
        </mxCell>
      </root>
    </mxGraphModel>
  </diagram>
</mxfile>
